Patient4_TMGait_0pt4_03_left_18_EMG.mot
version=1
nRows=36
nColumns=33
inDegrees=no
endheader
time	1LAddLong	2LGlutMax	3LGlutMed	4LIliopsoas	5LSemiMemb	6LBicFemLong	7LRecFem	8LVastMed	9LVastLat	10LGasMed	11LTibAnt	12lTibPost	13LPeroneusLong	14LSol	15LExtDigLong	16LFlexDigLong	17RAddLong	18RGlutMax	19RGlutMed	20RIliopsoas	21RSemiMemb	22RBicFemLong	23RRecFem	24RVastMed	25RVastLat	26RGasMed	27RTibAnt	28RTibPost	29RPeroneusLong	30RSol	31RExtDigLong	32RFlexDigLong
24.4	-0.001373	0.11261	-0.080872	0.009918	0.014343	0.029907	0.15228	0.004425	-0.05661	-0.032806	0.002747	0.002594	0.093689	0.007629	0.009613	0.004272	0.028381	0.089264	-0.063629	-0.053711	0.13077	-0.029297	-0.20111	-0.043793	-0.17578	0.003815	0.1973	0.000916	-0.02182	-0.10849	-0.010071	-0.009003
24.401	0.006866	0.058899	-0.1059	0.001831	0.011902	0.002899	0.12695	-0.005646	-0.041962	-0.029907	0.00061	0.000305	0.091705	0.046234	0.014191	-0.001831	0.031281	0.10208	-0.19333	-0.01709	0.12222	-0.034485	-0.091248	-0.039978	-0.21133	-0.00473	0.11261	-0.002289	-0.029755	-0.16312	-0.001526	0.00824
24.402	0.007477	0.081329	-0.10315	0.00946	0.017395	-0.028992	0.10666	0.000458	-0.019684	-0.021057	0.000916	0.003815	0.00061	0.060577	0.018158	0.002899	0.049133	0.11612	-0.36102	-0.002747	0.098724	-0.055695	-0.072021	-0.039978	-0.085297	0.002289	0.21622	0.003357	0.039063	-0.1796	-0.001831	-0.003357
24.403	0.012054	0.058746	-0.15549	-0.000153	0.021667	-0.057373	0.14984	-0.00412	-0.029449	-0.010376	0.013733	-0.010223	-0.040131	0.049438	0.006104	0.00412	0.039215	0.14053	0.065765	0.076752	0.17059	-0.055847	-0.14664	-0.06897	-0.041351	0.003204	-0.24124	0.001373	0.03891	-0.13275	0.005035	-0.006409
24.404	-0.004272	0.041656	-0.2034	-0.003662	0.0177	-0.046692	0.15259	0.003204	-0.027618	-0.007629	0.007629	-0.001678	-0.064392	0.022888	-0.002441	0.000763	0.015717	0.08667	-0.32837	0.11246	0.3006	-0.064545	-0.21225	-0.15549	0.044861	0.003815	-0.007172	0.001221	-0.031281	-0.065155	0.001526	-0.00885
24.405	0.001831	0.044861	-0.20325	0.024261	0.018463	-0.043945	0.14282	0.009918	-0.027618	0.011902	-0.000305	-0.002594	0.03067	0.022736	0.013733	-0.000305	0.006561	0.10773	-0.11673	0.091858	0.23956	-0.034027	-0.21301	-0.13901	0.032349	-0.00351	0.20325	0.001526	-0.1088	-0.038757	-0.003967	-0.00946
24.406	0.003204	0.053711	-0.19043	0.024109	0.007629	-0.018768	0.13428	-0.003204	-0.03006	-0.001068	-0.006256	0.001526	0.071411	0.03952	0.008392	0.001526	-0.007019	0.062103	0.32349	0.057068	0.15533	-0.028534	-0.16663	-0.13153	-0.00351	0.000153	0.027313	0.002899	-0.10529	-0.025024	-0.002136	-0.014801
24.407	0.000153	0.041199	-0.12878	0.0177	0.010376	-0.034637	0.12329	0.000458	-0.020599	0.010223	0.009003	-0.001526	-0.049286	0.023041	0.000916	-0.002747	-0.008392	0.013428	-0.086517	0.006104	0.12924	0.003052	-0.19104	-0.080414	0.021515	0.002594	0.1358	0.005646	-0.074158	0.074158	-0.007019	-0.01297
24.408	0.004272	0.032654	-0.068207	-0.008392	0.001221	-0.042267	0.086823	0.002136	-0.020599	0.011292	0.002136	0.011749	-0.021515	0.019073	0.005188	-0.007019	-0.016632	0.011749	0.10361	-0.12177	0.12665	0.062561	-0.28992	-0.033264	0.038605	0.00473	0.12802	0.000458	-0.028076	0.1004	-0.003967	-0.003662
24.409	0.007019	0.085907	-0.068512	-0.018005	-0.00412	-0.046997	0.072174	-0.003204	-0.014343	0.018616	0.007629	0.000458	-0.018616	0.017395	0.005035	-0.003815	-0.015869	0.024414	0.32791	-0.11307	0.094604	-0.009613	-0.22919	-0.054474	0.027161	0.011139	0.29617	-0.000153	0.070496	0.023193	0.00061	-0.005951
24.41	0.01297	0.067291	-0.070801	-0.019531	0.003052	-0.029907	0.066376	-0.002441	-0.010223	0.014801	0.00473	0.015411	-0.030975	0.020752	0.002289	-0.019379	0	0.028687	-0.049896	-0.019684	0.19104	-0.039215	-0.16556	-0.035858	0.011749	0.006256	0.15274	0.001678	0.096283	0.042877	-0.004883	-0.009003
24.411	0.007629	0.076904	-0.090179	-0.007324	0.00946	-0.027008	0.047455	-0.004578	-0.002441	-0.004272	0.014191	0.003662	0.001526	0.027771	0.007935	-0.010681	0.014038	0.044708	0.095978	-0.093842	0.17716	-0.06546	-0.1416	-0.048218	0.029602	-0.003204	-0.19119	0.000153	0.071869	0.056458	-0.003815	-0.014801
24.412	0.007935	0.052795	-0.035553	0.009155	0.024109	-0.009613	0.042114	-0.000153	-0.005646	0.020752	0.014343	0.002899	0.018921	0.024261	0.007324	0.001831	0.009308	0.044403	-0.010681	-0.05722	0.14374	-0.056	-0.11688	0.001221	0.039063	0.002747	-0.2623	0.00061	0.069885	0.044556	-0.005798	-0.005341
24.413	0.003052	0.055237	-0.081787	0.018768	0.015564	-0.000763	0.049286	0.000458	-0.002289	0.031281	0.010071	0.019379	0.013885	0.0354	-0.000305	0.002136	0.026245	-0.001831	0.011749	0.041656	0.14099	-0.021362	-0.048676	0.090637	0.005646	0.006256	-0.24536	0.001068	0.11932	0.042725	-0.001221	-0.007782
24.414	0.010223	0.065002	-0.069885	0.015411	0.021057	-0.025024	0.020447	-0.007172	0.004425	0.004425	0.010834	0.008698	0.00885	0.01297	-0.001984	0.000916	0.036774	-0.015717	-0.011444	0.099792	0.13321	-0.038605	0.010681	0.015106	0.000153	0.003052	-0.22095	0.003357	0.077972	0.076447	0.000153	-0.007324
24.415	0.009918	0.074158	-0.061798	-0.002747	0.023193	-0.09903	0.010529	-0.001373	0.001068	-0.025635	0.01236	-0.002441	0.001678	0.044098	-0.002289	-0.00412	0.026245	0.050201	0.56717	0.14343	0.12222	-0.0177	-0.046082	-0.062561	0.12146	0.004272	-0.34485	0.003357	0.012207	0.091248	-0.003662	-0.006409
24.416	-0.006866	0.081635	-0.10025	0.004578	0.0177	-0.12558	0.025024	-0.005341	-0.006561	-0.027161	0.00946	-0.000458	-0.000763	0.070038	0	-0.003357	0.027618	0.002136	0.23438	0.063477	0.10193	-0.039368	-0.10117	-0.031128	0.15167	0.00412	-0.43427	0.002747	0.019379	0.067902	-0.007172	-0.00061
24.417	0.038452	0.057983	-0.11719	0.002594	0.011902	-0.11002	0.046539	0.001984	-0.011902	0.003204	0.01358	0.014038	0.012817	0.02533	0.034485	-0.004883	0.042419	0.008087	-0.30319	0.028992	0.11154	-0.04776	-0.06546	0.003052	0.069733	0.001221	-0.24048	0.00412	-0.011139	0.041809	-0.003357	-0.008545
24.418	-0.017395	0.068817	-0.15503	0.014801	0.018158	-0.11566	0.056915	0.007324	-0.018311	0.13458	0.002594	-0.00473	0.014191	-0.015717	0.028687	-0.005035	0.058136	-0.011292	-0.18097	0.10407	0.062866	-0.048676	-0.006866	-0.003662	-0.028076	-0.005188	-0.14542	-0.006104	0.013275	0.068207	-0.002899	-0.008392
24.419	0.009308	0.082855	-0.15564	0.018921	0.018921	-0.097351	0.05127	0.005951	-0.025024	0.27771	0.000305	0.007935	0.029144	0.021057	-0.002136	0.004578	0.061188	-0.008698	0.34851	0.066986	0.074005	-0.012054	0.005341	-0.011749	-0.097198	-0.006714	-0.073242	0.000763	-0.013885	0.04364	-0.002441	-0.011749
24.42	-0.002136	0.12711	-0.16205	-0.002747	0.025787	-0.037842	0.049591	-0.001526	-0.012817	0.12558	0.012665	0.010529	0.031281	-0.02655	-0.016785	-0.001831	0.027466	-0.036469	0.38666	0.099182	0.19058	-0.00885	-0.06958	0.019073	-0.069885	0.001221	0.022888	0.003204	-0.011749	0.052032	-0.003357	-0.005493
24.421	0.00946	0.18601	-0.12375	0.010834	0.033264	0.087128	0.046234	-0.001373	-0.005951	0.043335	0.016632	0.005798	0.026398	-0.04776	-0.032349	-0.000763	-0.001373	-0.007782	0.086975	0.1091	0.07309	0.016632	-0.12604	0.09079	-0.002899	0.001984	-0.023499	0.002136	0.000763	0.070801	0.000916	-0.01709
24.422	0.00885	0.19943	-0.12909	0.007782	0.031738	0.22415	0.061188	0.003967	-0.012054	-0.083618	0.010529	0.011444	0.021973	-0.087128	-0.034485	-0.007019	0.003204	-0.031738	0.23636	0.044708	0.12634	0.025635	-0.17929	0.072174	0.023041	-0.001984	0.009766	-0.000458	-0.007629	0.030212	0	-0.016785
24.423	-0.000153	0.22369	-0.17487	0.00351	-0.010223	0.23224	0.054474	0.009766	-0.00412	-0.072174	0.003815	0.005035	0.050049	-0.12451	-0.019379	-0.003052	0.022278	-0.015564	0.30853	-0.050659	0.066223	0.021057	-0.077209	0.025482	-0.024719	0.003815	0.03067	0.001068	0.006561	0.014191	0.004272	-0.016174
24.424	-0.003204	0.24094	-0.19547	-0.007629	-0.021973	0.19089	0.058289	0.004272	-0.008545	0.10086	0.00473	0.024872	0.049286	-0.024109	-0.002899	0.00412	0.036469	0.046234	0.070648	-0.072174	0.009613	0.010529	-0.034332	-0.092621	-0.066528	0.004272	-0.036621	0.002441	-0.046539	-0.016632	-0.001373	-0.011292
24.425	0.006561	0.26047	-0.17364	0.001984	-0.013123	0.10452	0.031433	0.004425	-0.003204	0.22293	0.003052	0.008545	0.011292	0.017548	0.010223	0.001984	0.047455	0.024567	0.038147	-0.10223	0.02533	-0.028076	-0.013123	-0.10284	-0.067444	0.001526	-0.096893	0.000305	-0.0383	-0.001068	-0.004578	-0.011902
24.426	0.00351	0.29984	0	0.007172	0.001526	-0.033722	0.050201	0.006256	0.009918	0.22751	0.002747	-0.003967	0.006409	-0.067902	0.01297	0.009918	0.055542	0.052185	0.058136	-0.092621	0.095367	-0.03952	0.01709	-0.15793	-0.085297	-0.004272	0.062408	0.001526	-0.017395	-0.006561	-0.00412	-0.007172
24.427	0.00412	0.2742	-0.093384	0.00061	0.020752	-0.13702	0.03067	0.008698	0.013123	0.28336	0.003967	0.003815	0.009766	-0.15472	0.012054	0.0177	0.035248	0.075073	0.3891	-0.029144	0.13184	-0.016785	-0.088196	-0.16037	-0.08194	-0.004425	0.11963	-0.005951	0.000458	0.005188	-0.001831	-0.003815
24.428	0.009003	0.30701	-0.10605	0.012817	0.027771	-0.12054	0.0177	0.005951	0.032654	0.28397	0.008698	0.011444	-0.011444	-0.14099	0.000153	0.006104	0.02182	0.058289	0.42313	0.028839	0.088654	0.000458	-0.09491	-0.16281	0.037079	0.002136	0.11368	-0.010834	-0.011292	-0.034943	-0.003662	-0.005493
24.429	0.014343	0.28275	-0.086365	0.009766	0.040588	-0.005493	0.008698	0.003204	0.028381	-0.025024	0.012665	0.004272	-0.034943	-0.004272	0.011749	-0.01297	-0.000153	0.044708	0.12039	0.034027	0.13123	0.016479	-0.092468	-0.31921	0.065613	-0.001068	0.090179	0.001526	-0.048523	-0.043335	-0.006104	-0.001678
24.43	0.01297	0.29434	-0.097198	0.004578	0.024719	0.015411	0.036774	0.006561	0.019379	-0.33173	0.000763	-0.00351	-0.075073	0.17212	-0.002594	-0.026855	0.003662	0.031281	0.082397	-0.011597	0.11566	0.056763	-0.085449	-0.37613	0.027466	0	0.023499	0.001373	-0.042572	-0.029449	-0.006256	0.001068
24.431	0.006409	0.31769	-0.12054	-0.000458	0.00061	0.040894	0.017548	0.006256	0.019836	-0.33585	0.001678	0.007172	-0.11231	0.17242	0.009918	-0.02121	-0.012207	0.077515	0.023956	-0.014648	0.1265	0.046997	-0.10681	-0.35553	0.014801	-0.00885	-0.12604	0.00351	-0.036011	-0.025024	0.000153	-0.005493
24.432	0.000153	0.30258	-0.12116	0.003967	-0.014801	0.054321	-0.00946	0.002899	0.014191	-0.19318	0.005188	0.00824	-0.08728	0.022583	0.053253	0.008698	-0.033875	0.050812	0.20706	-0.012512	0.14267	0.038452	-0.18234	-0.23453	0.013123	-0.003815	-0.20416	0.000458	-0.024261	-0.025787	-0.006104	-0.007935
24.433	-0.000763	0.2713	-0.11688	0.011292	-0.022125	0.018463	-0.023041	0.004272	0.020905	-0.18616	0.00824	0.006714	-0.007019	0.10742	0.056763	0.018311	-0.048676	-0.02533	0.079498	0.02121	0.11902	0.03067	-0.14206	-0.080872	0.017548	-0.006409	-0.14771	0.000458	-0.059052	-0.01358	-0.004578	-0.008698
24.434	0.007782	0.29846	-0.091553	0.014648	-0.00946	-0.10361	-0.044403	-0.001984	0.038147	-0.14099	0.01236	-0.005188	0.084381	0.014191	-0.025787	0.00946	-0.057983	-0.08606	0.068054	0.001068	0.12116	0.010223	-0.087738	-0.007782	0.005188	-0.004578	0.030518	-0.002594	-0.11429	-0.028534	-0.003967	-0.010376
24.435	0.005951	0.2713	-0.082092	0.007324	0.010529	-0.15717	-0.042419	0.005188	0.033264	-0.091095	0.011139	-0.00946	0.094299	0.031281	-0.053101	-0.002136	-0.072327	-0.066528	0.071716	0.012512	0.11078	0.019073	-0.16525	0.14603	0.010376	0.003662	0.12375	-0.005798	-0.1091	-0.043945	-0.003357	-0.014954
